<?xml version="1.0" encoding="UTF-8" standalone="no"?>
<!-- Generator: Adobe Illustrator 19.0.0, SVG Export Plug-In . SVG Version: 6.00 Build 0)  -->

<svg
   xmlns:dc="http://purl.org/dc/elements/1.1/"
   xmlns:cc="http://creativecommons.org/ns#"
   xmlns:rdf="http://www.w3.org/1999/02/22-rdf-syntax-ns#"
   xmlns:svg="http://www.w3.org/2000/svg"
   xmlns="http://www.w3.org/2000/svg"
   xmlns:sodipodi="http://sodipodi.sourceforge.net/DTD/sodipodi-0.dtd"
   xmlns:inkscape="http://www.inkscape.org/namespaces/inkscape"
   version="1.1"
   id="Layer_1"
   x="0px"
   y="0px"
   viewBox="0 0 512 512"
   style="enable-background:new 0 0 512 512;"
   xml:space="preserve"
   sodipodi:docname="up-arrow.svg"
   inkscape:version="0.92.1 r15371"><metadata
     id="metadata5166"><rdf:RDF><cc:Work
         rdf:about=""><dc:format>image/svg+xml</dc:format><dc:type
           rdf:resource="http://purl.org/dc/dcmitype/StillImage" /><dc:title></dc:title></cc:Work></rdf:RDF></metadata><defs
     id="defs5164" /><sodipodi:namedview
     pagecolor="#ffffff"
     bordercolor="#666666"
     borderopacity="1"
     objecttolerance="10"
     gridtolerance="10"
     guidetolerance="10"
     inkscape:pageopacity="0"
     inkscape:pageshadow="2"
     inkscape:window-width="1920"
     inkscape:window-height="1017"
     id="namedview5162"
     showgrid="false"
     inkscape:zoom="0.4609375"
     inkscape:cx="256"
     inkscape:cy="256"
     inkscape:window-x="-8"
     inkscape:window-y="-8"
     inkscape:window-maximized="1"
     inkscape:current-layer="Layer_1" /><g
     id="g5129"
     transform="rotate(180,255.99925,256)"><path
       style="fill:#6ac259"
       d="m 256.001,512 c -32.627,0 -59.08,-26.453 -59.08,-59.08 V 59.077 C 196.921,26.45 223.374,0 256.001,0 c 32.627,0 59.077,26.45 59.077,59.077 V 452.92 c 0,32.628 -26.45,59.08 -59.077,59.08 z"
       id="path5125"
       inkscape:connector-curvature="0" /><path
       style="fill:#6ac259"
       d="m 452.924,315.075 c -15.119,0 -30.241,-5.765 -41.769,-17.301 L 256.004,142.628 100.852,297.774 c -23.068,23.073 -60.477,23.073 -83.546,0 -23.073,-23.073 -23.073,-60.477 0,-83.551 L 214.226,17.305 c 23.068,-23.073 60.477,-23.073 83.543,0 l 196.925,196.92 c 23.071,23.073 23.071,60.477 0,83.551 -11.537,11.533 -26.656,17.299 -41.77,17.299 z"
       id="path5127"
       inkscape:connector-curvature="0" /></g><g
     id="g5131" /><g
     id="g5133" /><g
     id="g5135" /><g
     id="g5137" /><g
     id="g5139" /><g
     id="g5141" /><g
     id="g5143" /><g
     id="g5145" /><g
     id="g5147" /><g
     id="g5149" /><g
     id="g5151" /><g
     id="g5153" /><g
     id="g5155" /><g
     id="g5157" /><g
     id="g5159" /></svg>