<?xml version="1.0" encoding="UTF-8" standalone="no"?>
<!-- Generator: Adobe Illustrator 19.0.0, SVG Export Plug-In . SVG Version: 6.00 Build 0)  -->

<svg
   xmlns:dc="http://purl.org/dc/elements/1.1/"
   xmlns:cc="http://creativecommons.org/ns#"
   xmlns:rdf="http://www.w3.org/1999/02/22-rdf-syntax-ns#"
   xmlns:svg="http://www.w3.org/2000/svg"
   xmlns="http://www.w3.org/2000/svg"
   xmlns:sodipodi="http://sodipodi.sourceforge.net/DTD/sodipodi-0.dtd"
   xmlns:inkscape="http://www.inkscape.org/namespaces/inkscape"
   version="1.1"
   id="Layer_1"
   x="0px"
   y="0px"
   viewBox="0 0 512 512"
   style="enable-background:new 0 0 512 512;"
   xml:space="preserve"
   sodipodi:docname="pause-button.svg"
   inkscape:version="0.92.3 (2405546, 2018-03-11)"><metadata
     id="metadata5750"><rdf:RDF><cc:Work
         rdf:about=""><dc:format>image/svg+xml</dc:format><dc:type
           rdf:resource="http://purl.org/dc/dcmitype/StillImage" /><dc:title /></cc:Work></rdf:RDF></metadata><defs
     id="defs5748" /><sodipodi:namedview
     pagecolor="#ffffff"
     bordercolor="#666666"
     borderopacity="1"
     objecttolerance="10"
     gridtolerance="10"
     guidetolerance="10"
     inkscape:pageopacity="0"
     inkscape:pageshadow="2"
     inkscape:window-width="1366"
     inkscape:window-height="715"
     id="namedview5746"
     showgrid="false"
     showguides="false"
     inkscape:snap-bbox="true"
     inkscape:bbox-nodes="true"
     inkscape:snap-bbox-midpoints="true"
     inkscape:snap-object-midpoints="true"
     inkscape:snap-center="true"
     inkscape:zoom="0.4609375"
     inkscape:cx="152.74285"
     inkscape:cy="155.5984"
     inkscape:window-x="-8"
     inkscape:window-y="-8"
     inkscape:window-maximized="1"
     inkscape:current-layer="Layer_1" /><circle
     style="fill:#78527b;fill-opacity:1"
     id="circle5711"
     r="256"
     cy="256"
     cx="256" /><g
     id="g5715" /><g
     id="g5717" /><g
     id="g5719" /><g
     id="g5721" /><g
     id="g5723" /><g
     id="g5725" /><g
     id="g5727" /><g
     id="g5729" /><g
     id="g5731" /><g
     id="g5733" /><g
     id="g5735" /><g
     id="g5737" /><g
     id="g5739" /><g
     id="g5741" /><g
     id="g5743" /><g
     transform="matrix(0.0363285,0.71214086,-0.71214086,0.0363285,404.18602,91.881665)"
     id="g4"
     style="fill:#ffffff;stroke-width:1.40239298"><path
       inkscape:connector-curvature="0"
       d="m 427.408,19.697 c -7.803,-3.23 -14.463,-1.902 -19.986,3.999 L 370.306,60.53 C 349.94,41.305 326.672,26.412 300.5,15.848 274.328,5.285 247.251,0.003 219.271,0.003 189.579,0.003 161.219,5.811 134.191,17.42 107.161,29.03 83.844,44.635 64.24,64.24 44.635,83.847 29.026,107.161 17.416,134.189 5.807,161.219 0,189.575 0,219.271 c 0,29.687 5.807,58.05 17.417,85.079 11.613,27.031 27.218,50.347 46.824,69.952 19.604,19.599 42.921,35.207 69.951,46.818 27.028,11.611 55.388,17.419 85.08,17.419 32.736,0 63.865,-6.899 93.363,-20.7 29.5,-13.795 54.625,-33.26 75.377,-58.386 1.52,-1.903 2.234,-4.045 2.136,-6.424 -0.089,-2.378 -0.999,-4.329 -2.711,-5.852 l -39.108,-39.399 c -2.101,-1.711 -4.473,-2.566 -7.139,-2.566 -3.045,0.38 -5.232,1.526 -6.566,3.429 -13.895,18.086 -30.93,32.072 -51.107,41.977 -20.173,9.894 -41.586,14.839 -64.237,14.839 -19.792,0 -38.684,-3.854 -56.671,-11.564 -17.989,-7.706 -33.551,-18.127 -46.682,-31.261 -13.13,-13.135 -23.551,-28.691 -31.261,-46.682 -7.708,-17.987 -11.563,-36.874 -11.563,-56.671 0,-19.795 3.858,-38.691 11.563,-56.674 7.707,-17.985 18.127,-33.547 31.261,-46.678 13.135,-13.134 28.693,-23.555 46.682,-31.265 17.983,-7.707 36.879,-11.563 56.671,-11.563 38.259,0 71.475,13.039 99.646,39.116 l -39.409,39.394 c -5.903,5.711 -7.231,12.279 -4.001,19.701 3.241,7.614 8.856,11.42 16.854,11.42 h 127.906 c 4.949,0 9.23,-1.807 12.848,-5.424 3.613,-3.616 5.42,-7.898 5.42,-12.847 V 36.55 C 438.542,28.558 434.84,22.943 427.408,19.697 Z"
       id="path2"
       style="fill:#ffffff;stroke-width:1.40239298" /></g></svg>