<?xml version="1.0" encoding="iso-8859-1"?>
<!-- Generator: Adobe Illustrator 19.0.0, SVG Export Plug-In . SVG Version: 6.00 Build 0)  -->
<svg version="1.1" id="Capa_1" xmlns="http://www.w3.org/2000/svg" xmlns:xlink="http://www.w3.org/1999/xlink" x="0px" y="0px"
	 viewBox="0 0 512 512" style="enable-background:new 0 0 512 512;" xml:space="preserve">
<circle style="fill:#005C83;" cx="256" cy="256" r="256"/>
<path style="fill:#00263F;" d="M508.662,297.329L271.333,60l-4.485,280.006L143.64,426.442l83.985,83.985
	C236.944,511.455,246.407,512,256,512C383.313,512,488.901,419.059,508.662,297.329z"/>
<rect x="240.67" y="60" style="fill:#FFECB3;" width="30.667" height="267.67"/>
<rect x="255.67" y="60" style="fill:#FFD863;" width="15.667" height="267.67"/>
<rect x="240.67" y="245.67" style="fill:#FFFFFF;" width="30.667" height="82"/>
<rect x="255.67" y="245.67" style="fill:#E0E0E0;" width="15.667" height="82"/>
<path style="fill:#FF6838;" d="M160.355,394.87c0-52.823,42.822-95.645,95.645-95.645s95.645,42.822,95.645,95.645H160.355z"/>
<path style="fill:#AE4E32;" d="M256,299.225c-0.111,0-0.222,0.004-0.333,0.004v95.641h95.979
	C351.645,342.046,308.823,299.225,256,299.225z"/>
<rect x="143.64" y="386.51" style="fill:#FFDC00;" width="224.72" height="39.93"/>
<rect x="255.67" y="386.51" style="fill:#FFC000;" width="112.69" height="39.929"/>
<g>
</g>
<g>
</g>
<g>
</g>
<g>
</g>
<g>
</g>
<g>
</g>
<g>
</g>
<g>
</g>
<g>
</g>
<g>
</g>
<g>
</g>
<g>
</g>
<g>
</g>
<g>
</g>
<g>
</g>
</svg>
