<?xml version="1.0" encoding="UTF-8" standalone="no"?>
<!-- Generator: Adobe Illustrator 19.0.0, SVG Export Plug-In . SVG Version: 6.00 Build 0)  -->

<svg
   xmlns:dc="http://purl.org/dc/elements/1.1/"
   xmlns:cc="http://creativecommons.org/ns#"
   xmlns:rdf="http://www.w3.org/1999/02/22-rdf-syntax-ns#"
   xmlns:svg="http://www.w3.org/2000/svg"
   xmlns="http://www.w3.org/2000/svg"
   xmlns:sodipodi="http://sodipodi.sourceforge.net/DTD/sodipodi-0.dtd"
   xmlns:inkscape="http://www.inkscape.org/namespaces/inkscape"
   version="1.1"
   id="Capa_1"
   x="0px"
   y="0px"
   viewBox="0 0 512 512"
   style="enable-background:new 0 0 512 512;"
   xml:space="preserve"
   sodipodi:docname="toilet (1).svg"
   inkscape:version="0.92.1 r15371"><metadata
     id="metadata4591"><rdf:RDF><cc:Work
         rdf:about=""><dc:format>image/svg+xml</dc:format><dc:type
           rdf:resource="http://purl.org/dc/dcmitype/StillImage" /><dc:title></dc:title></cc:Work></rdf:RDF></metadata><defs
     id="defs4589" /><sodipodi:namedview
     pagecolor="#ffffff"
     bordercolor="#666666"
     borderopacity="1"
     objecttolerance="10"
     gridtolerance="10"
     guidetolerance="10"
     inkscape:pageopacity="0"
     inkscape:pageshadow="2"
     inkscape:window-width="1920"
     inkscape:window-height="1017"
     id="namedview4587"
     showgrid="false"
     inkscape:zoom="0.65186406"
     inkscape:cx="758.97051"
     inkscape:cy="254.96783"
     inkscape:window-x="-8"
     inkscape:window-y="-8"
     inkscape:window-maximized="1"
     inkscape:current-layer="layer1" /><g
     id="g4556" /><g
     id="g4558" /><g
     id="g4560" /><g
     id="g4562" /><g
     id="g4564" /><g
     id="g4566" /><g
     id="g4568" /><g
     id="g4570" /><g
     id="g4572" /><g
     id="g4574" /><g
     id="g4576" /><g
     id="g4578" /><g
     id="g4580" /><g
     id="g4582" /><g
     id="g4584" /><g
     inkscape:groupmode="layer"
     id="layer1"
     inkscape:label="Layer 1"
     style="display:inline"><circle
       style="fill:#ff6838"
       cx="256"
       cy="256"
       r="256"
       id="circle4530" /><path
       style="fill:#ae4e32"
       d="m 512,256 c 0,-16.247 -1.531,-32.133 -4.424,-47.54 C 458.08253,156.27387 410.80715,103.01704 357.98041,54.257768 329.75334,64.624347 361.5228,99.973259 316.50585,190.15192 L 333.909,219.108 c -8.82415,56.0707 -4.08134,34.5509 -29.50852,60.35617 L 132.42465,263.25244 162.008,305.893 158.56463,318.1662 210.196,389.323 164.40411,426.36874 236.825,511.286 C 243.156,511.755 249.549,512 256,512 397.385,512 512,397.385 512,256 Z"
       id="path4532"
       inkscape:connector-curvature="0"
       sodipodi:nodetypes="scccccccccccss" /></g><g
     inkscape:groupmode="layer"
     id="layer2"
     inkscape:label="Layer 2"
     sodipodi:insensitive="true"><rect
       x="198.14067"
       y="357.7851"
       style="fill:#e0e0e0;stroke-width:0.7028451"
       width="110.6981"
       height="46.739197"
       id="rect4540" /><rect
       x="250.27069"
       y="357.7851"
       style="fill:#c0c0c0;stroke-width:0.7028451"
       width="58.568085"
       height="46.739197"
       id="rect4542" /><rect
       x="132.42465"
       y="263.25244"
       style="fill:#e0e0e0;stroke-width:0.7028451"
       width="176.41412"
       height="39.359325"
       id="rect4544" /><rect
       x="250.27069"
       y="263.25244"
       style="fill:#c0c0c0;stroke-width:0.7028451"
       width="58.568085"
       height="39.359325"
       id="rect4546" /><path
       style="fill:#ffffff;stroke-width:0.7028451"
       d="M 308.83878,372.8998 H 201.42085 c -31.37711,0 -56.81307,-25.43596 -56.81307,-56.81308 v -13.47143 h 164.231 z"
       id="path4548"
       inkscape:connector-curvature="0" /><polygon
       style="fill:#e0e0e0"
       points="255.667,331.885 339,331.885 339,331.885 387,331.885 387,87.885 339,87.885 339,231.885 255.667,231.885 "
       id="polygon4550"
       transform="matrix(0.70284509,0,0,0.70284509,70.574291,139.63606)" /><rect
       x="164.40411"
       y="396.84924"
       style="fill:#ffffff;stroke-width:0.7028451"
       width="178.17123"
       height="29.519493"
       id="rect4552" /><rect
       x="250.27069"
       y="396.84924"
       style="fill:#e0e0e0;stroke-width:0.7028451"
       width="92.304649"
       height="29.519493"
       id="rect4554" /></g><g
     transform="matrix(0,0.3372816,-0.3372816,0,448.21201,54.166702)"
     id="g5150"><path
       inkscape:connector-curvature="0"
       id="path5148"
       d="M 326.66767,320.77 H 275.483 v -10.293 h 32.12267 c 8.375,0 15.164,-6.789 15.164,-15.164 v -1.089 c 0,-8.375 -6.789,-15.164 -15.164,-15.164 H 264.596 v -10.293 h 7.39567 c 8.375,0 15.164,-6.789 15.164,-15.164 0,-8.375 -6.789,-15.164 -15.164,-15.164 H 150.894 v 0.237 c -19.157,1.693 -35.583,12.877 -44.55,28.819 -0.008,0.013 -0.021,0.021 -0.037,0.021 0,0 -53.593,0.004 -106.037,0.01 2.037,45.947 16.18,88.743 39.325,125.278 35.274,0.002 64.112,0.003 64.112,0.003 0.017,0 0.032,0.01 0.039,0.024 7.611,17.028 24.699,28.93 44.524,28.93 h 113.303 c 11.171,0 20.191,-9.125 20.062,-20.295 -0.127,-10.989 -9.072,-19.832 -20.062,-19.832 h -59.065 c -0.023,0 -0.041,-0.018 -0.043,-0.04 l -0.401,-5.763 c -1.85,-26.606 -22.247,-47.998 -47.967,-51.86 l -0.109,-12.585 c 30.395,3.673 55.111,27.347 59.86,57.742 0.003,0.021 0.021,0.036 0.042,0.036 h 48.382 c 0.483,0 0.964,0.013 1.441,0.038 12.135,0.64 26.917,11.454 26.993,23.605 10e-4,0.197 81.649,0.103 107.202,0.04 8.36,-0.021 15.117,-6.804 15.117,-15.164 v -0.04 c 0,-8.375 -6.789,-15.164 -15.164,-15.164 H 284.194 v -10.293 h 42.47367 c 8.375,0 15.164,-6.789 15.164,-15.164 v -1.089 c 0,-8.374 -6.789,-15.163 -15.164,-15.163 z"
       style="fill:#ffbeaa"
       sodipodi:nodetypes="sccssssccsssccccccccsscsscccccsscccsssccssss" /></g><g
     transform="matrix(0,0.3372816,-0.3372816,0,448.21201,54.166702)"
     id="g5156"><path
       inkscape:connector-curvature="0"
       id="path5152"
       d="m 261.574,421.762 c 11.171,0 20.191,-9.125 20.062,-20.295 -0.127,-10.989 -9.072,-19.832 -20.062,-19.832 h -5.839 v 40.127 z"
       style="fill:#faa68e" /><path
       inkscape:connector-curvature="0"
       id="path5154"
       d="M 328.20174,320.77 H 275.483 v -10.293 h 33.65674 c 8.375,0 15.164,-6.789 15.164,-15.164 v -1.089 c 0,-8.375 -6.789,-15.164 -15.164,-15.164 H 264.596 v -10.293 h 8.92974 c 8.375,0 15.164,-6.789 15.164,-15.164 0,-8.375 -6.789,-15.164 -15.164,-15.164 H 255.735 v 130.726 h 6.537 c 0.483,0 0.964,0.013 1.441,0.038 12.135,0.64 26.917,11.454 26.993,23.605 10e-4,0.197 81.649,0.103 107.202,0.04 8.36,-0.021 15.117,-6.804 15.117,-15.164 v -0.04 c 0,-8.375 -6.789,-15.164 -15.164,-15.164 H 284.194 v -10.293 h 44.00774 c 8.375,0 15.164,-6.789 15.164,-15.164 v -1.089 c 0,-8.375 -6.789,-15.164 -15.164,-15.164 z"
       style="fill:#faa68e"
       sodipodi:nodetypes="sccssssccsssccscccsssccssss" /></g></svg>