<?xml version="1.0" encoding="UTF-8" standalone="no"?>
<!-- Generator: Adobe Illustrator 19.0.0, SVG Export Plug-In . SVG Version: 6.00 Build 0)  -->

<svg
   xmlns:dc="http://purl.org/dc/elements/1.1/"
   xmlns:cc="http://creativecommons.org/ns#"
   xmlns:rdf="http://www.w3.org/1999/02/22-rdf-syntax-ns#"
   xmlns:svg="http://www.w3.org/2000/svg"
   xmlns="http://www.w3.org/2000/svg"
   xmlns:sodipodi="http://sodipodi.sourceforge.net/DTD/sodipodi-0.dtd"
   xmlns:inkscape="http://www.inkscape.org/namespaces/inkscape"
   version="1.1"
   id="Layer_1"
   x="0px"
   y="0px"
   viewBox="0 0 512 512"
   style="enable-background:new 0 0 512 512;"
   xml:space="preserve"
   sodipodi:docname="reload (1).svg"
   inkscape:version="0.92.1 r15371"><metadata
     id="metadata39"><rdf:RDF><cc:Work
         rdf:about=""><dc:format>image/svg+xml</dc:format><dc:type
           rdf:resource="http://purl.org/dc/dcmitype/StillImage" /></cc:Work></rdf:RDF></metadata><defs
     id="defs37" /><sodipodi:namedview
     pagecolor="#ffffff"
     bordercolor="#666666"
     borderopacity="1"
     objecttolerance="10"
     gridtolerance="10"
     guidetolerance="10"
     inkscape:pageopacity="0"
     inkscape:pageshadow="2"
     inkscape:window-width="1920"
     inkscape:window-height="1017"
     id="namedview35"
     showgrid="false"
     inkscape:zoom="0.32593203"
     inkscape:cx="658.69055"
     inkscape:cy="-19.108189"
     inkscape:window-x="-8"
     inkscape:window-y="-8"
     inkscape:window-maximized="1"
     inkscape:current-layer="Layer_1"
     inkscape:snap-global="false" /><g
     id="g4" /><g
     id="g6" /><g
     id="g8" /><g
     id="g10" /><g
     id="g12" /><g
     id="g14" /><g
     id="g16" /><g
     id="g18" /><g
     id="g20" /><g
     id="g22" /><g
     id="g24" /><g
     id="g26" /><g
     id="g28" /><g
     id="g30" /><g
     id="g32" /><g
     inkscape:export-filename="C:\Users\Henrii\Desktop\pygame\python_mack\Algoritimos e Programa-o\Jogos\PyGame\LogicGame\imagens\actions\loop.png"
     inkscape:export-xdpi="96"
     inkscape:export-ydpi="96"
     id="g8405"><path
       inkscape:connector-curvature="0"
       id="path7620"
       d="m 64.992556,477.47268 c 1.053532,7.27196 -0.273975,14.5314 -3.75017,20.82931 l 4.731894,-0.72063 c 2.738209,-0.41701 5.287525,1.52068 5.694128,4.32801 0.406727,2.80742 -1.483194,5.42117 -4.221311,5.83805 l -17.015213,2.59128 c -2.738209,0.41701 -5.287524,-1.52068 -5.694127,-4.32801 l -2.5274,-17.44528 c -0.203364,-1.40371 0.167496,-2.75896 0.931412,-3.81545 0.764007,-1.05662 1.920886,-1.81423 3.28999,-2.02273 2.738208,-0.41701 5.287525,1.52068 5.694128,4.32801 l 0.78579,5.42389 c 4.786564,-9.56378 2.265388,-21.58123 -6.427419,-28.18848 -9.670023,-7.35002 -23.369525,-5.26359 -30.538256,4.65073 -7.16873,9.91431 -5.13382,23.96021 4.536081,31.31013 2.223659,1.69017 2.689919,4.90851 1.041422,7.18837 -1.648498,2.27987 -4.787595,2.75804 -7.011253,1.06787 C 7.676786,503.31223 3.224081,495.69883 1.974001,487.06945 0.72383,478.44019 2.82601,469.82842 7.893356,462.82031 c 5.067346,-7.00811 12.493147,-11.57349 20.909673,-12.85526 8.416526,-1.28177 16.815992,0.87355 23.651335,6.06897 6.835344,5.19543 11.288143,12.80949 12.538192,21.43866 z"
       style="fill:#8ae9ff;stroke-width:0.15530737" /><g
       transform="matrix(-0.08980902,0.12632918,-0.1211434,-0.09365348,91.485566,477.47605)"
       id="g7628"><path
         inkscape:connector-curvature="0"
         id="path7622"
         d="m 255.999,512.001 c -58.2,0 -112.916,-22.665 -154.069,-63.818 -41.153,-41.152 -63.817,-95.868 -63.817,-154.068 0,-58.2 22.665,-112.916 63.818,-154.069 v 0 C 131.789,110.188 168.47,90.107 208.948,81.284 l -8.108,-8.107 c -8.098,-8.098 -12.559,-18.866 -12.559,-30.319 0,-11.453 4.46,-22.221 12.559,-30.319 16.718,-16.717 43.921,-16.718 60.638,0 l 79.303,79.302 c 8.099,8.098 12.559,18.866 12.559,30.319 0,11.453 -4.46,22.221 -12.559,30.319 l -79.302,79.302 c -8.098,8.098 -18.866,12.559 -30.319,12.559 -11.453,0 -22.221,-4.46 -30.319,-12.559 -15.206,-15.206 -16.581,-39.084 -4.127,-55.858 -43.8,21.835 -72.845,66.85 -72.845,118.191 0,72.858 59.274,132.131 132.131,132.131 72.857,0 132.131,-59.274 132.131,-132.131 0,-23.643 19.234,-42.877 42.878,-42.877 23.644,0 42.878,19.234 42.878,42.877 0,58.2 -22.665,112.916 -63.818,154.069 -41.154,41.153 -95.87,63.818 -154.07,63.818 z M 231.16,20.39 c -5.757,0 -11.512,2.191 -15.894,6.574 -4.246,4.245 -6.584,9.891 -6.584,15.894 0,6.003 2.338,11.649 6.584,15.894 l 22.054,22.054 c 2.756,2.757 3.7,6.843 2.433,10.529 -1.268,3.686 -4.526,6.328 -8.394,6.805 -43.797,5.413 -83.565,24.891 -115.003,56.329 v 0 c -37.3,37.3 -57.842,86.893 -57.842,139.644 0,52.751 20.542,102.344 57.842,139.644 37.299,37.3 86.893,57.843 139.644,57.843 52.751,0 102.344,-20.542 139.644,-57.842 37.301,-37.3 57.843,-86.894 57.843,-139.645 0,-12.395 -10.084,-22.478 -22.479,-22.478 -12.395,0 -22.479,10.083 -22.479,22.478 0,84.105 -68.424,152.53 -152.53,152.53 -84.106,0 -152.53,-68.425 -152.53,-152.53 0,-36.313 13.028,-71.514 36.685,-99.12 23.391,-27.296 55.671,-45.535 90.892,-51.358 4.373,-0.722 8.711,1.461 10.735,5.402 2.026,3.941 1.274,8.74 -1.859,11.873 l -24.656,24.656 c -8.765,8.765 -8.765,23.025 0,31.789 4.245,4.246 9.891,6.584 15.894,6.584 6.003,0 11.649,-2.338 15.894,-6.584 l 79.302,-79.302 c 4.246,-4.246 6.585,-9.891 6.585,-15.894 0,-6.003 -2.338,-11.648 -6.584,-15.894 L 247.054,26.963 C 242.673,22.582 236.916,20.39 231.16,20.39 Z"
         style="fill:#248a9c" /><path
         inkscape:connector-curvature="0"
         id="path7624"
         d="m 265.179,185.143 c -2.61,0 -5.221,-0.995 -7.212,-2.987 -3.983,-3.983 -3.983,-10.441 0,-14.425 l 1.57,-1.57 c 3.983,-3.983 10.441,-3.983 14.425,0 3.983,3.983 3.983,10.441 0,14.425 l -1.57,1.57 c -1.992,1.992 -4.603,2.987 -7.213,2.987 z"
         style="fill:#248a9c" /><path
         inkscape:connector-curvature="0"
         id="path7626"
         d="m 288.8,161.584 c -2.61,0 -5.22,-0.995 -7.212,-2.987 -3.983,-3.983 -3.984,-10.441 0,-14.424 l 25.948,-25.949 c 3.983,-3.983 10.441,-3.984 14.424,0 3.983,3.984 3.984,10.441 0,14.424 l -25.948,25.949 c -1.992,1.991 -4.602,2.987 -7.212,2.987 z"
         style="fill:#248a9c" /></g><path
       style="opacity:1;fill:#8ae9ff;fill-opacity:1;fill-rule:nonzero;stroke:#248a9c;stroke-width:2.002;stroke-linecap:round;stroke-linejoin:round;stroke-miterlimit:4;stroke-dasharray:none;stroke-dashoffset:0;stroke-opacity:1;paint-order:markers fill stroke"
       d="m 43.554015,459.34344 a 9.9714041,9.9714041 0 0 1 -9.971404,9.9714 9.9714041,9.9714041 0 0 1 -9.971404,-9.9714 9.9714041,9.9714041 0 0 1 9.971404,-9.97141 9.9714041,9.9714041 0 0 1 9.971404,9.97141 z"
       id="path8347"
       inkscape:connector-curvature="0" /></g></svg>