<?xml version="1.0" encoding="UTF-8" standalone="no"?>
<!-- Generator: Adobe Illustrator 19.0.0, SVG Export Plug-In . SVG Version: 6.00 Build 0)  -->

<svg
   xmlns:dc="http://purl.org/dc/elements/1.1/"
   xmlns:cc="http://creativecommons.org/ns#"
   xmlns:rdf="http://www.w3.org/1999/02/22-rdf-syntax-ns#"
   xmlns:svg="http://www.w3.org/2000/svg"
   xmlns="http://www.w3.org/2000/svg"
   xmlns:sodipodi="http://sodipodi.sourceforge.net/DTD/sodipodi-0.dtd"
   xmlns:inkscape="http://www.inkscape.org/namespaces/inkscape"
   version="1.1"
   id="Capa_1"
   x="0px"
   y="0px"
   viewBox="0 0 512 512"
   style="enable-background:new 0 0 512 512;"
   xml:space="preserve"
   sodipodi:docname="tampa_aberta.svg"
   inkscape:version="0.92.1 r15371"><metadata
     id="metadata4591"><rdf:RDF><cc:Work
         rdf:about=""><dc:format>image/svg+xml</dc:format><dc:type
           rdf:resource="http://purl.org/dc/dcmitype/StillImage" /><dc:title></dc:title></cc:Work></rdf:RDF></metadata><defs
     id="defs4589" /><sodipodi:namedview
     pagecolor="#ffffff"
     bordercolor="#666666"
     borderopacity="1"
     objecttolerance="10"
     gridtolerance="10"
     guidetolerance="10"
     inkscape:pageopacity="0"
     inkscape:pageshadow="2"
     inkscape:window-width="1920"
     inkscape:window-height="1017"
     id="namedview4587"
     showgrid="false"
     inkscape:zoom="1.3037281"
     inkscape:cx="491.82046"
     inkscape:cy="346.17117"
     inkscape:window-x="-8"
     inkscape:window-y="-8"
     inkscape:window-maximized="1"
     inkscape:current-layer="Capa_1" /><circle
     style="fill:#FF6838;"
     cx="256"
     cy="256"
     r="256"
     id="circle4530" /><path
     style="fill:#ae4e32"
     d="m 512,256 c 0,-16.247 -1.531,-32.133 -4.424,-47.54 L 339,25.091272 338.29931,164.72503 C 305.35363,221.78862 341.455,200.457 341.455,200.457 l -7.546,18.651 c -89.05867,51.41805 -11.28324,6.14175 -48.015,15.984 L 88,231.885 l 74.008,74.008 -34.901,0.341 83.089,83.089 -76.696,18.638 103.325,103.325 C 243.156,511.755 249.549,512 256,512 397.385,512 512,397.385 512,256 Z"
     id="path4532"
     inkscape:connector-curvature="0"
     sodipodi:nodetypes="sccccccccccccss" /><rect
     x="181.5"
     y="310.38"
     style="fill:#E0E0E0;"
     width="157.5"
     height="66.5"
     id="rect4540" /><rect
     x="255.67"
     y="310.38"
     style="fill:#C0C0C0;"
     width="83.33"
     height="66.5"
     id="rect4542" /><rect
     x="88"
     y="202.45628"
     style="fill:#e0e0e0;stroke-width:0.7248612"
     width="251"
     height="29.423729"
     id="rect4544" /><rect
     id="rect5788"
     height="20.71657"
     width="177.36501"
     style="fill:#e0e0e0;stroke-width:0.51128376"
     y="-339"
     x="25.091272"
     transform="rotate(90)" /><rect
     x="255.67"
     y="202.45628"
     style="fill:#c0c0c0;stroke-width:0.72486109"
     width="83.330002"
     height="29.423721"
     id="rect4546" /><path
     style="fill:#FFFFFF;"
     d="M339,331.885H186.167c-44.643,0-80.833-36.19-80.833-80.833v-19.167H339V331.885z"
     id="path4548" /><polygon
     style="fill:#E0E0E0;"
     points="339,87.885 339,231.885 255.667,231.885 255.667,331.885 339,331.885 339,331.885   387,331.885 387,87.885 "
     id="polygon4550" /><rect
     x="133.5"
     y="365.96"
     style="fill:#FFFFFF;"
     width="253.5"
     height="42"
     id="rect4552" /><rect
     x="255.67"
     y="365.96"
     style="fill:#E0E0E0;"
     width="131.33"
     height="42"
     id="rect4554" /><g
     id="g4556" /><g
     id="g4558" /><g
     id="g4560" /><g
     id="g4562" /><g
     id="g4564" /><g
     id="g4566" /><g
     id="g4568" /><g
     id="g4570" /><g
     id="g4572" /><g
     id="g4574" /><g
     id="g4576" /><g
     id="g4578" /><g
     id="g4580" /><g
     id="g4582" /><g
     id="g4584" /><rect
     id="rect5790"
     height="194.01672"
     width="9.9723606"
     style="fill:#c0c0c0;stroke-width:0.64390808"
     y="25.091272"
     x="329.02765" /></svg>