<?xml version="1.0" encoding="iso-8859-1"?>
<!-- Generator: Adobe Illustrator 19.0.0, SVG Export Plug-In . SVG Version: 6.00 Build 0)  -->
<svg version="1.1" id="Capa_1" xmlns="http://www.w3.org/2000/svg" xmlns:xlink="http://www.w3.org/1999/xlink" x="0px" y="0px"
	 viewBox="0 0 512 512" style="enable-background:new 0 0 512 512;" xml:space="preserve">
<circle style="fill:#590F38;" cx="256" cy="256" r="256"/>
<path style="fill:#3F0C2A;" d="M512,256c0-7.5-0.342-14.918-0.974-22.254L386.678,109.397l-262.272,295.54l105.772,105.772
	C238.67,511.56,247.283,512,256,512C397.385,512,512,397.385,512,256z"/>
<path style="fill:#E0E0E0;" d="M106.777,368.354c0,42.824,66.809,77.539,149.223,77.539s149.223-34.715,149.223-77.539V146.855
	H106.777L106.777,368.354z"/>
<path style="fill:#C0C0C0;" d="M255.667,146.854V445.89c0.111,0,0.222,0.002,0.333,0.002c82.414,0,149.223-34.715,149.223-77.539
	V146.854H255.667z"/>
<ellipse style="fill:#FFFFFF;" cx="256" cy="146.85" rx="149.22" ry="77.54"/>
<path style="fill:#E0E0E0;" d="M256,69.315c-0.111,0-0.222,0.002-0.333,0.002v155.074c0.111,0,0.222,0.002,0.333,0.002
	c82.414,0,149.223-34.716,149.223-77.539C405.223,104.031,338.414,69.315,256,69.315z"/>
<ellipse style="fill:#C0C0C0;" cx="256" cy="146.85" rx="53.807" ry="27.959"/>
<path style="fill:#758F9B;" d="M256,118.895c-0.112,0-0.221,0.004-0.333,0.004v55.909c0.112,0,0.222,0.004,0.333,0.004
	c29.717,0,53.807-12.518,53.807-27.959C309.807,131.413,285.716,118.895,256,118.895z"/>
<g>
</g>
<g>
</g>
<g>
</g>
<g>
</g>
<g>
</g>
<g>
</g>
<g>
</g>
<g>
</g>
<g>
</g>
<g>
</g>
<g>
</g>
<g>
</g>
<g>
</g>
<g>
</g>
<g>
</g>
</svg>
