<svg height="512pt" viewBox="0 0 512 512" width="512pt" xmlns="http://www.w3.org/2000/svg"><path d="m512 256c0 141.386719-114.613281 256-256 256s-256-114.613281-256-256 114.613281-256 256-256 256 114.613281 256 256zm0 0" fill="#ffbc00"/><path d="m512 256c0-26.324219-3.976562-51.714844-11.355469-75.613281l-79.007812-79.007813-313.910157 284.199219 125.394532 125.394531c7.539062.667969 15.164062 1.027344 22.878906 1.027344 141.386719 0 256-114.613281 256-256zm0 0" fill="#ff9700"/><path d="m226.722656 101.378906h194.910156v247.011719h-194.910156zm0 0" fill="#fff"/><path d="m353.394531 159.503906c0-32.101562-56.898437-58.125-127.082031-58.125s-127.078125 26.023438-127.078125 58.125c0 32.101563 56.894531 58.125 127.078125 58.125s127.082031-26.023437 127.082031-58.125zm0 0" fill="#ebfffb"/><path d="m353.394531 159.503906c0-32.085937-56.835937-58.097656-126.964843-58.125v116.25c70.128906-.03125 126.964843-26.042968 126.964843-58.125zm0 0" fill="#a8f3e9"/><path d="m263.90625 159.503906c0-9.496094-16.832031-17.195312-37.59375-17.195312-20.757812 0-37.589844 7.699218-37.589844 17.195312s16.832032 17.191406 37.589844 17.191406c20.761719 0 37.59375-7.695312 37.59375-17.191406zm0 0" fill="#4a98f7"/><path d="m263.90625 159.503906c0-9.480468-16.769531-17.164062-37.476562-17.195312v34.386718c20.707031-.027343 37.476562-7.714843 37.476562-17.191406zm0 0" fill="#2864f0"/><path d="m99.234375 364.652344c0 32.101562 56.894531 58.125 127.078125 58.125s127.082031-26.023438 127.082031-58.125v-205.148438c0 32.101563-56.898437 58.125-127.082031 58.125s-127.078125-26.023437-127.078125-58.125zm0 0" fill="#fff"/><path d="m226.429688 217.628906v205.148438c70.128906-.027344 126.964843-26.039063 126.964843-58.125v-205.148438c0 32.082032-56.835937 58.09375-126.964843 58.125zm0 0" fill="#e1fffa"/></svg>