<?xml version="1.0" encoding="UTF-8" standalone="no"?>
<svg
   xmlns:dc="http://purl.org/dc/elements/1.1/"
   xmlns:cc="http://creativecommons.org/ns#"
   xmlns:rdf="http://www.w3.org/1999/02/22-rdf-syntax-ns#"
   xmlns:svg="http://www.w3.org/2000/svg"
   xmlns="http://www.w3.org/2000/svg"
   xmlns:sodipodi="http://sodipodi.sourceforge.net/DTD/sodipodi-0.dtd"
   xmlns:inkscape="http://www.inkscape.org/namespaces/inkscape"
   height="512pt"
   viewBox="0 -38 512 512"
   width="512pt"
   version="1.1"
   id="svg22"
   sodipodi:docname="towel.svg"
   inkscape:version="0.92.1 r15371">
  <metadata
     id="metadata28">
    <rdf:RDF>
      <cc:Work
         rdf:about="">
        <dc:format>image/svg+xml</dc:format>
        <dc:type
           rdf:resource="http://purl.org/dc/dcmitype/StillImage" />
        <dc:title />
      </cc:Work>
    </rdf:RDF>
  </metadata>
  <defs
     id="defs26" />
  <sodipodi:namedview
     pagecolor="#ffffff"
     bordercolor="#666666"
     borderopacity="1"
     objecttolerance="10"
     gridtolerance="10"
     guidetolerance="10"
     inkscape:pageopacity="0"
     inkscape:pageshadow="2"
     inkscape:window-width="1920"
     inkscape:window-height="1017"
     id="namedview24"
     showgrid="false"
     showguides="false"
     inkscape:zoom="0.69140625"
     inkscape:cx="484.02641"
     inkscape:cy="326.62218"
     inkscape:window-x="-8"
     inkscape:window-y="-8"
     inkscape:window-maximized="1"
     inkscape:current-layer="svg22" />
  <ellipse
     style="fill:#ff6838;stroke-width:0.98305082"
     cx="252.88445"
     cy="214.10805"
     id="circle4530-2"
     r="251.66101" />
  <g
     id="g4529"
     transform="matrix(0.73443979,0,0,0.73443979,62.136573,63.689455)">
    <circle
       id="circle4530"
       r="261.42374"
       cy="207.15254"
       cx="246.23729"
       style="display:inline;fill:#ff6838;stroke-width:1.02118647" />
    <path
       sodipodi:nodetypes="sccccccccccccss"
       inkscape:connector-curvature="0"
       id="path4532"
       d="m 504.54544,214.10805 c 0,-15.97163 -1.50505,-31.58837 -4.34902,-46.73422 L 385.85121,108.44664 347.65151,132.911 c -32.38728,56.09642 -75.07996,-37.724027 -10.76048,26.59547 l -7.4181,18.33488 c -87.54919,50.54655 -11.092,6.03765 -47.20118,15.71307 l -178.95656,-66.99389 50.6354,41.58702 10.93238,89.31083 41.46574,73.63773 -137.586102,9.10515 165.271822,124.86591 c 6.22369,0.46105 12.50833,0.70189 18.85,0.70189 138.98864,0 251.66101,-112.67237 251.66101,-251.66101 z"
       style="fill:#ae4e32;stroke-width:0.98305082" />
    <path
       style="fill:#fdc050;stroke-width:0.58070248"
       inkscape:connector-curvature="0"
       id="path2"
       d="m 401.54425,127.58112 c 0,2.28425 -0.40604,4.47776 -1.15233,6.50795 -2.65399,7.26105 -9.61562,12.44201 -17.79762,12.44201 l -0.10889,-0.14065 -2.84227,-12.30136 -5.87734,-25.46471 h 8.8285 c 10.46625,0 18.94995,8.48597 18.94995,18.95676 z m 0,0" />
    <path
       style="fill:#fc9e51;stroke-width:0.58070248"
       inkscape:connector-curvature="0"
       id="path4"
       d="m 400.39192,134.08907 c -2.65399,7.26105 -9.61562,12.44201 -17.79762,12.44201 l -0.10889,-0.14065 -2.84227,-12.30136 z m 0,0" />
    <path
       style="fill:#4b7fbc;stroke-width:0.58070248"
       inkscape:connector-curvature="0"
       id="path6"
       d="M 201.98676,99.237852 H 326.67674 V 340.79872 H 148.5009 v -188.075 c 0,-29.5387 23.94717,-53.485868 53.48586,-53.485868 z m 0,0" />
    <path
       style="fill:#2b6299;stroke-width:0.58070248"
       inkscape:connector-curvature="0"
       id="path12"
       d="m 148.5009,146.53108 h 21.20925 V 340.80099 H 148.5009 Z m 0,0" />
    <g
       transform="matrix(0.43161357,-0.36033554,0.36033554,0.43161357,-27.753053,224.8307)"
       id="g5186">
      <path
         style="fill:#ffbeaa"
         d="M 408.74,320.77 H 275.483 v -10.293 h 114.195 c 8.375,0 15.164,-6.789 15.164,-15.164 v -1.089 c 0,-8.375 -6.789,-15.164 -15.164,-15.164 H 264.596 v -10.293 h 89.468 c 8.375,0 15.164,-6.789 15.164,-15.164 0,-8.375 -6.789,-15.164 -15.164,-15.164 h -203.17 v 0.237 c -19.157,1.693 -35.583,12.877 -44.55,28.819 -0.008,0.013 -0.021,0.021 -0.037,0.021 0,0 -53.593,0.004 -106.037,0.01 2.037,45.947 16.18,88.743 39.325,125.278 35.274,0.002 64.112,0.003 64.112,0.003 0.017,0 0.032,0.01 0.039,0.024 7.611,17.028 24.699,28.93 44.524,28.93 h 113.303 c 11.171,0 20.191,-9.125 20.062,-20.295 -0.127,-10.989 -9.072,-19.832 -20.062,-19.832 h -59.065 c -0.023,0 -0.041,-0.018 -0.043,-0.04 l -0.401,-5.763 c -1.85,-26.606 -22.247,-47.998 -47.967,-51.86 l -0.109,-12.585 c 30.395,3.673 55.111,27.347 59.86,57.742 0.003,0.021 0.021,0.036 0.042,0.036 h 48.382 c 0.483,0 0.964,0.013 1.441,0.038 12.135,0.64 26.917,11.454 26.993,23.605 10e-4,0.197 81.649,0.103 107.202,0.04 8.36,-0.021 15.117,-6.804 15.117,-15.164 v -0.04 c 0,-8.375 -6.789,-15.164 -15.164,-15.164 H 284.194 V 352.186 H 408.74 c 8.375,0 15.164,-6.789 15.164,-15.164 v -1.089 c 0,-8.374 -6.789,-15.163 -15.164,-15.163 z"
         id="path5184"
         inkscape:connector-curvature="0" />
    </g>
    <g
       transform="matrix(0.43161357,-0.36033554,0.36033554,0.43161357,-27.753053,224.8307)"
       id="g5192">
      <path
         style="fill:#faa68e"
         d="m 261.574,421.762 c 11.171,0 20.191,-9.125 20.062,-20.295 -0.127,-10.989 -9.072,-19.832 -20.062,-19.832 h -5.839 v 40.127 z"
         id="path5188"
         inkscape:connector-curvature="0" />
      <path
         style="fill:#faa68e"
         d="M 408.74,320.77 H 275.483 v -10.293 h 114.195 c 8.375,0 15.164,-6.789 15.164,-15.164 v -1.089 c 0,-8.375 -6.789,-15.164 -15.164,-15.164 H 264.596 v -10.293 h 89.468 c 8.375,0 15.164,-6.789 15.164,-15.164 0,-8.375 -6.789,-15.164 -15.164,-15.164 h -98.329 v 130.726 h 6.537 c 0.483,0 0.964,0.013 1.441,0.038 12.135,0.64 26.917,11.454 26.993,23.605 10e-4,0.197 81.649,0.103 107.202,0.04 8.36,-0.021 15.117,-6.804 15.117,-15.164 v -0.04 c 0,-8.375 -6.789,-15.164 -15.164,-15.164 H 284.194 V 352.187 H 408.74 c 8.375,0 15.164,-6.789 15.164,-15.164 v -1.089 c 0,-8.375 -6.789,-15.164 -15.164,-15.164 z"
         id="path5190"
         inkscape:connector-curvature="0" />
    </g>
    <path
       style="fill:#2b6299;stroke-width:0.58070248"
       inkscape:connector-curvature="0"
       id="path8"
       d="M 216.04612,134.08907 H 148.5009 v 35.73815 h 44.64377 V 307.2382 H 326.679 V 134.08907 Z m 0,0" />
    <path
       style="fill:#4b7fbc;stroke-width:0.58070248"
       inkscape:connector-curvature="0"
       id="path10"
       d="m 148.5009,136.5253 c 0,-27.08206 22.03493,-49.110187 49.11699,-49.110187 h 135.75053 c 27.08206,0 49.11699,22.028127 49.11699,49.110187 V 278.87679 H 225.52336 V 136.5253 c 0,-15.4113 -12.49418,-27.90094 -27.90547,-27.90094 -7.70792,0 -14.68315,3.12128 -19.73254,8.17067 -5.05393,5.04712 -8.1752,12.02916 -8.1752,19.73027" />
    <path
       style="fill:#fdc050;stroke-width:0.58070248"
       inkscape:connector-curvature="0"
       id="path14"
       d="m 225.52336,136.5253 v 10.00578 H 123.17683 l -8.71961,-10.00578 c 0,-0.81661 0.0181,-1.62869 0.0612,-2.43623 0.46048,-9.4228 3.5931,-18.16056 8.65837,-25.46471 h 74.44106 c 14.58561,0 26.56713,11.1944 27.79659,25.46471 0.0726,0.80074 0.10888,1.61962 0.10888,2.43623 z m 0,0" />
    <path
       style="fill:#fc9e51;stroke-width:0.58070248"
       inkscape:connector-curvature="0"
       id="path16"
       d="m 225.52336,136.5253 v 10.00578 H 123.17683 l -8.71961,-10.00578 c 0,-0.81661 0.0181,-1.62869 0.0612,-2.43623 h 110.89602 c 0.0726,0.80074 0.10888,1.61962 0.10888,2.43623 z m 0,0" />
    <path
       style="fill:#fc9e51;stroke-width:0.58070248"
       inkscape:connector-curvature="0"
       id="path18"
       d="m 142.12905,127.57886 c 0,10.46624 -8.4837,18.95222 -18.95222,18.95222 -10.46626,0 -18.95223,-8.48598 -18.95223,-18.95222 0,-10.46853 8.48597,-18.9545 18.95223,-18.9545 10.46852,0 18.95222,8.48597 18.95222,18.9545 z m 0,0" />
    <path
       style="fill:#cdcfe0;stroke-width:0.58070248"
       inkscape:connector-curvature="0"
       id="path20"
       d="m 225.52336,211.68317 h 156.96205 v 22.50675 H 225.52336 Z m 0,0" />
    <g
       id="g5820"
       transform="matrix(0.43161357,-0.36033554,0.36033554,0.43161357,-27.753053,224.8307)">
      <path
         sodipodi:nodetypes="ccccccccsscssccccccc"
         inkscape:connector-curvature="0"
         id="path5818"
         d="m 150.894,238.439 v 0.237 c -19.157,1.693 -35.583,12.877 -44.55,28.819 -0.008,0.013 -0.021,0.021 -0.037,0.021 0,0 -53.593,0.004 -106.037,0.01 2.037,45.947 16.18,88.743 39.325,125.278 35.274,0.002 64.112,0.003 64.112,0.003 0.017,0 0.032,0.01 0.039,0.024 7.611,17.028 24.699,28.93 44.524,28.93 h 113.303 c 11.171,0 20.191,-9.125 20.062,-20.295 -0.127,-10.989 -9.072,-19.832 -20.062,-19.832 h -59.065 c -0.023,0 -0.041,-0.018 -0.043,-0.04 l -0.401,-5.763 c -1.85,-26.606 -22.247,-47.998 -47.967,-51.86 l -0.109,-12.585 c 30.395,3.673 46.93965,-15.01739 51.68865,15.37761 -3.89298,-37.88552 10.13779,15.59056 10.15879,15.59056 C 205.9597,232.6277 253.57123,324.15979 150.894,238.439 Z"
         style="fill:#ffbeaa" />
    </g>
    <g
       id="g5816"
       transform="matrix(0.43161357,-0.36033554,0.36033554,0.43161357,-27.753053,224.8307)">
      <path
         inkscape:connector-curvature="0"
         id="path5812"
         d="m 261.574,421.762 c 11.171,0 20.191,-9.125 20.062,-20.295 -0.127,-10.989 -9.072,-19.832 -20.062,-19.832 h -5.839 v 40.127 z"
         style="fill:#faa68e" />
    </g>
  </g>
</svg>
