<?xml version="1.0" encoding="UTF-8" standalone="no"?>
<!-- Generator: Adobe Illustrator 21.0.0, SVG Export Plug-In . SVG Version: 6.00 Build 0)  -->

<svg
   xmlns:dc="http://purl.org/dc/elements/1.1/"
   xmlns:cc="http://creativecommons.org/ns#"
   xmlns:rdf="http://www.w3.org/1999/02/22-rdf-syntax-ns#"
   xmlns:svg="http://www.w3.org/2000/svg"
   xmlns="http://www.w3.org/2000/svg"
   xmlns:sodipodi="http://sodipodi.sourceforge.net/DTD/sodipodi-0.dtd"
   xmlns:inkscape="http://www.inkscape.org/namespaces/inkscape"
   version="1.1"
   id="Capa_1"
   x="0px"
   y="0px"
   viewBox="0 0 512 512"
   style="enable-background:new 0 0 512 512;"
   xml:space="preserve"
   width="512"
   height="512"
   sodipodi:docname="washing-hands.svg"
   inkscape:version="0.92.3 (2405546, 2018-03-11)"><metadata
   id="metadata1218"><rdf:RDF><cc:Work
       rdf:about=""><dc:format>image/svg+xml</dc:format><dc:type
         rdf:resource="http://purl.org/dc/dcmitype/StillImage" /></cc:Work></rdf:RDF></metadata><defs
   id="defs1216">
	
	
	
	
	
	
	

		
	
		
	</defs><sodipodi:namedview
   pagecolor="#ffffff"
   bordercolor="#666666"
   borderopacity="1"
   objecttolerance="10"
   gridtolerance="10"
   guidetolerance="10"
   inkscape:pageopacity="0"
   inkscape:pageshadow="2"
   inkscape:window-width="1252"
   inkscape:window-height="612"
   id="namedview1214"
   showgrid="false"
   inkscape:zoom="0.921875"
   inkscape:cx="155.3309"
   inkscape:cy="321.92174"
   inkscape:window-x="0"
   inkscape:window-y="0"
   inkscape:window-maximized="0"
   inkscape:current-layer="Capa_1" />
<g
   style="stroke-width:2.0480001"
   id="g1181"
   transform="matrix(0.48828125,0,0,0.48828125,119.32203,144.84746)">
			<g
   style="stroke-width:2.0480001"
   id="g1179">
				<circle
   style="fill:#4a7aff;stroke-width:2.0480001"
   cx="256"
   cy="256"
   r="256"
   id="circle1177" />
			</g>
		</g><path
   style="fill:#0053bf;stroke-width:2.0480001"
   d="M 511.655,269.367 373.405,131.118 285.803,286.375 163.08,163.736 l -37.387,39.639 48.389,48.389 c 0,0 -160.046341,89.18187 -132.077,141.04 27.969341,51.85813 83.413,83.413 83.413,83.413 C 163.652,498.938 208.297,512 256,512 392.901,512 504.701,404.539 511.655,269.367 Z"
   id="path1185"
   inkscape:connector-curvature="0"
   sodipodi:nodetypes="cccccczcsc"
   transform="matrix(0.48828125,0,0,0.48828125,119.32203,144.84746)" /><g
   id="g1191"
   style="stroke-width:2.0480001"
   transform="matrix(0.48828125,0,0,0.48828125,119.32203,144.84746)">
		<path
   id="path1189"
   d="M 408.74,320.77 H 275.483 v -10.293 h 114.195 c 8.375,0 15.164,-6.789 15.164,-15.164 v -1.089 c 0,-8.375 -6.789,-15.164 -15.164,-15.164 H 264.596 v -10.293 h 89.468 c 8.375,0 15.164,-6.789 15.164,-15.164 0,-8.375 -6.789,-15.164 -15.164,-15.164 h -203.17 v 0.237 c -19.157,1.693 -35.583,12.877 -44.55,28.819 -0.008,0.013 -0.021,0.021 -0.037,0.021 0,0 -53.593,0.004 -106.037,0.01 2.037,45.947 16.18,88.743 39.325,125.278 35.274,0.002 64.112,0.003 64.112,0.003 0.017,0 0.032,0.01 0.039,0.024 7.611,17.028 24.699,28.93 44.524,28.93 h 113.303 c 11.171,0 20.191,-9.125 20.062,-20.295 -0.127,-10.989 -9.072,-19.832 -20.062,-19.832 h -59.065 c -0.023,0 -0.041,-0.018 -0.043,-0.04 l -0.401,-5.763 c -1.85,-26.606 -22.247,-47.998 -47.967,-51.86 l -0.109,-12.585 c 30.395,3.673 55.111,27.347 59.86,57.742 0.003,0.021 0.021,0.036 0.042,0.036 h 48.382 c 0.483,0 0.964,0.013 1.441,0.038 12.135,0.64 26.917,11.454 26.993,23.605 10e-4,0.197 81.649,0.103 107.202,0.04 8.36,-0.021 15.117,-6.804 15.117,-15.164 v -0.04 c 0,-8.375 -6.789,-15.164 -15.164,-15.164 H 284.194 V 352.186 H 408.74 c 8.375,0 15.164,-6.789 15.164,-15.164 v -1.089 c 0,-8.374 -6.789,-15.163 -15.164,-15.163 z"
   style="fill:#ffbeaa;stroke-width:2.0480001"
   inkscape:connector-curvature="0" />
	</g><g
   id="g1197"
   style="stroke-width:2.0480001"
   transform="matrix(0.48828125,0,0,0.48828125,119.32203,144.84746)">
		<path
   id="path1193"
   d="m 261.574,421.762 c 11.171,0 20.191,-9.125 20.062,-20.295 -0.127,-10.989 -9.072,-19.832 -20.062,-19.832 h -5.839 v 40.127 z"
   style="fill:#faa68e;stroke-width:2.0480001"
   inkscape:connector-curvature="0" />
		<path
   id="path1195"
   d="M 408.74,320.77 H 275.483 v -10.293 h 114.195 c 8.375,0 15.164,-6.789 15.164,-15.164 v -1.089 c 0,-8.375 -6.789,-15.164 -15.164,-15.164 H 264.596 v -10.293 h 89.468 c 8.375,0 15.164,-6.789 15.164,-15.164 0,-8.375 -6.789,-15.164 -15.164,-15.164 h -98.329 v 130.726 h 6.537 c 0.483,0 0.964,0.013 1.441,0.038 12.135,0.64 26.917,11.454 26.993,23.605 10e-4,0.197 81.649,0.103 107.202,0.04 8.36,-0.021 15.117,-6.804 15.117,-15.164 v -0.04 c 0,-8.375 -6.789,-15.164 -15.164,-15.164 H 284.194 V 352.187 H 408.74 c 8.375,0 15.164,-6.789 15.164,-15.164 v -1.089 c 0,-8.375 -6.789,-15.164 -15.164,-15.164 z"
   style="fill:#faa68e;stroke-width:2.0480001"
   inkscape:connector-curvature="0" />
	</g><g
   id="g1201"
   style="stroke-width:2.0480001"
   transform="matrix(0.48828125,0,0,0.48828125,119.32203,144.84746)">
		<path
   id="path1199"
   d="m 388.075,178.524 c 1.116,-3.948 1.726,-8.108 1.726,-12.412 0,-25.158 -20.395,-45.553 -45.553,-45.553 -21.174,0 -38.971,14.448 -44.078,34.023 -4.159,-0.677 -8.423,-1.043 -12.773,-1.043 -25.619,0 -48.378,12.206 -62.81,31.109 -2.414,-0.429 -4.894,-0.666 -7.431,-0.666 -23.286,0 -42.162,18.877 -42.162,42.162 0,23.226 18.782,42.062 41.986,42.158 13.052,25.641 39.674,43.216 70.418,43.216 19.345,0 37.056,-6.964 50.789,-18.509 8.295,4.068 17.619,6.36 27.481,6.36 34.518,0 62.5,-27.982 62.5,-62.5 -0.001,-26.618 -16.648,-49.335 -40.093,-58.345 z"
   style="fill:#dbeeff;stroke-width:2.0480001"
   inkscape:connector-curvature="0" />
	</g><g
   id="g1205"
   style="stroke-width:2.0480001"
   transform="matrix(0.48828125,0,0,0.48828125,119.32203,144.84746)">
		<path
   id="path1203"
   d="m 388.075,178.524 c 1.116,-3.948 1.726,-8.108 1.726,-12.412 0,-25.158 -20.395,-45.553 -45.553,-45.553 -21.174,0 -38.971,14.448 -44.078,34.023 -4.159,-0.677 -8.422,-1.043 -12.773,-1.043 -11.262,0 -21.97,2.36 -31.662,6.61 V 304.9 c 9.692,4.25 20.398,6.618 31.662,6.618 19.345,0 37.056,-6.964 50.789,-18.509 8.295,4.068 17.619,6.36 27.481,6.36 34.518,0 62.5,-27.982 62.5,-62.5 0,-26.618 -16.647,-49.335 -40.092,-58.345 z"
   style="fill:#bfe1ff;stroke-width:2.0480001"
   inkscape:connector-curvature="0" />
	</g><g
   id="g1209"
   style="stroke-width:2.0480001"
   transform="matrix(0.48828125,0,0,0.48828125,119.32203,144.84746)">
		<circle
   id="circle1207"
   r="27.379999"
   cy="181.713"
   cx="142.42799"
   style="fill:#dbeeff;stroke-width:2.0480001" />
	</g>















</svg>