<?xml version="1.0" encoding="UTF-8" standalone="no"?>
<!-- Created with Inkscape (http://www.inkscape.org/) -->

<svg
   xmlns:dc="http://purl.org/dc/elements/1.1/"
   xmlns:cc="http://creativecommons.org/ns#"
   xmlns:rdf="http://www.w3.org/1999/02/22-rdf-syntax-ns#"
   xmlns:svg="http://www.w3.org/2000/svg"
   xmlns="http://www.w3.org/2000/svg"
   xmlns:sodipodi="http://sodipodi.sourceforge.net/DTD/sodipodi-0.dtd"
   xmlns:inkscape="http://www.inkscape.org/namespaces/inkscape"
   width="1024"
   height="168"
   viewBox="0 0 270.93333 44.450001"
   version="1.1"
   id="svg5256"
   inkscape:version="0.92.3 (2405546, 2018-03-11)"
   sodipodi:docname="resized.svg">
  <defs
     id="defs5250">
    <inkscape:path-effect
       effect="bspline"
       id="path-effect1022"
       is_visible="true"
       weight="33.333333"
       steps="2"
       helper_size="0"
       apply_no_weight="true"
       apply_with_weight="true"
       only_selected="false" />
    <inkscape:path-effect
       effect="bspline"
       id="path-effect9731"
       is_visible="true"
       weight="33.333333"
       steps="2"
       helper_size="0"
       apply_no_weight="true"
       apply_with_weight="true"
       only_selected="false" />
    <inkscape:path-effect
       only_selected="false"
       apply_with_weight="true"
       apply_no_weight="true"
       helper_size="0"
       steps="2"
       weight="33.333333"
       is_visible="true"
       id="path-effect9727"
       effect="bspline" />
    <inkscape:path-effect
       effect="bspline"
       id="path-effect9723"
       is_visible="true"
       weight="33.333333"
       steps="2"
       helper_size="0"
       apply_no_weight="true"
       apply_with_weight="true"
       only_selected="false" />
    <inkscape:path-effect
       only_selected="false"
       apply_with_weight="true"
       apply_no_weight="true"
       helper_size="0"
       steps="2"
       weight="33.333333"
       is_visible="true"
       id="path-effect9719"
       effect="bspline" />
    <inkscape:path-effect
       effect="bspline"
       id="path-effect9715"
       is_visible="true"
       weight="33.333333"
       steps="2"
       helper_size="0"
       apply_no_weight="true"
       apply_with_weight="true"
       only_selected="false" />
    <inkscape:path-effect
       only_selected="false"
       apply_with_weight="true"
       apply_no_weight="true"
       helper_size="0"
       steps="2"
       weight="33.333333"
       is_visible="true"
       id="path-effect9711"
       effect="bspline" />
    <inkscape:path-effect
       only_selected="false"
       apply_with_weight="true"
       apply_no_weight="true"
       helper_size="0"
       steps="2"
       weight="33.333333"
       is_visible="true"
       id="path-effect9699"
       effect="bspline" />
    <inkscape:path-effect
       effect="bspline"
       id="path-effect9695"
       is_visible="true"
       weight="33.333333"
       steps="2"
       helper_size="0"
       apply_no_weight="true"
       apply_with_weight="true"
       only_selected="false" />
    <inkscape:path-effect
       only_selected="false"
       apply_with_weight="true"
       apply_no_weight="true"
       helper_size="0"
       steps="2"
       weight="33.333333"
       is_visible="true"
       id="path-effect9691"
       effect="bspline" />
    <inkscape:path-effect
       effect="bspline"
       id="path-effect9687"
       is_visible="true"
       weight="33.333333"
       steps="2"
       helper_size="0"
       apply_no_weight="true"
       apply_with_weight="true"
       only_selected="false" />
    <inkscape:path-effect
       only_selected="false"
       apply_with_weight="true"
       apply_no_weight="true"
       helper_size="0"
       steps="2"
       weight="33.333333"
       is_visible="true"
       id="path-effect9683"
       effect="bspline" />
    <inkscape:path-effect
       effect="bspline"
       id="path-effect9679"
       is_visible="true"
       weight="33.333333"
       steps="2"
       helper_size="0"
       apply_no_weight="true"
       apply_with_weight="true"
       only_selected="false" />
  </defs>
  <sodipodi:namedview
     id="base"
     pagecolor="#ffffff"
     bordercolor="#666666"
     borderopacity="1.0"
     inkscape:pageopacity="0.0"
     inkscape:pageshadow="2"
     inkscape:zoom="0.50000001"
     inkscape:cx="512"
     inkscape:cy="183.77242"
     inkscape:document-units="px"
     inkscape:current-layer="layer1"
     showgrid="false"
     inkscape:window-width="1366"
     inkscape:window-height="715"
     inkscape:window-x="-8"
     inkscape:window-y="-8"
     inkscape:window-maximized="1"
     showguides="true"
     inkscape:snap-global="true"
     units="px"
     inkscape:snap-page="true"
     inkscape:snap-bbox="true"
     inkscape:snap-bbox-edge-midpoints="true" />
  <metadata
     id="metadata5253">
    <rdf:RDF>
      <cc:Work
         rdf:about="">
        <dc:format>image/svg+xml</dc:format>
        <dc:type
           rdf:resource="http://purl.org/dc/dcmitype/StillImage" />
        <dc:title />
      </cc:Work>
    </rdf:RDF>
  </metadata>
  <g
     inkscape:label="Camada 1"
     inkscape:groupmode="layer"
     id="layer1"
     transform="translate(0,-252.54998)">
    <path
       style="fill:#5fb13a;stroke:none;stroke-width:0.26046866"
       inkscape:connector-curvature="0"
       id="path4022"
       d="m -86.556547,267.22199 v -5.60917 c 0,-1.24354 0.621771,-1.86531 1.865312,-1.86531 H 183.48357 c 0.62618,0 1.0892,0.16316 1.38907,0.48948 0.32631,0.29986 0.48947,0.75847 0.48947,1.37583 v 5.60917 h -0.52916 v -5.60917 c 0,-0.89076 -0.44979,-1.33614 -1.34938,-1.33614 H -84.691235 c -0.890764,0 -1.336146,0.44538 -1.336146,1.33614 v 5.60917 h -0.529166"
       sodipodi:nodetypes="cssscsccsssscc"
       transform="matrix(0.99637637,0,0,1.0355963,86.242898,-16.443567)" />
    <path
       style="fill:#9ea4ad;stroke:none;stroke-width:0.26046866"
       inkscape:connector-curvature="0"
       id="path4024"
       d="m -86.556547,267.22199 h 0.529166 v 33.58234 c 0,0.89077 0.445382,1.33615 1.336146,1.33615 H 183.48358 c 0.89958,0 1.34937,-0.44538 1.34937,-1.33615 v -33.58234 h 0.52917 v 33.58234 c 0,0.61736 -0.16316,1.07597 -0.48948,1.37583 -0.29986,0.32632 -0.76288,0.48948 -1.38906,0.48948 H -84.691235 c -1.243541,0 -1.865312,-0.62177 -1.865312,-1.86531 v -33.58234"
       sodipodi:nodetypes="ccssssccscsssc"
       transform="matrix(0.99637637,0,0,1.0355963,86.242898,-16.443567)" />
    <path
       style="fill:#88e060;stroke:none;stroke-width:0.26046866"
       inkscape:connector-curvature="0"
       id="path4026"
       d="m -86.027381,267.22199 v -5.60917 c 0,-0.89076 0.445382,-1.33614 1.336146,-1.33614 H 183.48357 c 0.89959,0 1.34938,0.44538 1.34938,1.33614 v 5.60917 h -0.52917 v -5.60917 c 0,-0.53799 -0.2734,-0.80698 -0.82021,-0.80698 H -84.691235 c -0.537986,0 -0.806979,0.26899 -0.806979,0.80698 v 5.60917 h -0.529167"
       sodipodi:nodetypes="cssssccsssscc"
       transform="matrix(0.99637637,0,0,1.0355963,86.242898,-16.443567)" />
    <path
       style="fill:#ecf2fa;stroke:none;stroke-width:0.26046866"
       inkscape:connector-curvature="0"
       id="path4028"
       d="m -86.027381,267.22199 h 0.529167 269.801994 0.52917 v 33.58234 c 0,0.89077 -0.44979,1.33615 -1.34938,1.33615 H -84.691235 c -0.890764,0 -1.336146,-0.44538 -1.336146,-1.33615 v -33.58234 m 1.336146,34.38932 H 183.48357 c 0.54681,0 0.82021,-0.26899 0.82021,-0.80698 V 267.75116 H -85.498214 v 33.05317 c 0,0.53799 0.268993,0.80698 0.806979,0.80698"
       sodipodi:nodetypes="ccccssssccssccsc"
       transform="matrix(0.99637637,0,0,1.0355963,86.242898,-16.443567)" />
    <path
       style="fill:#73cd4b;stroke:none;stroke-width:0.26046866"
       inkscape:connector-curvature="0"
       id="path4030"
       d="m -85.498214,267.22199 v -5.60917 c 0,-0.53799 0.268993,-0.80698 0.806979,-0.80698 H 183.48357 c 0.54681,0 0.82021,0.26899 0.82021,0.80698 v 5.60917 H -85.498214"
       sodipodi:nodetypes="csssscc"
       transform="matrix(0.99637637,0,0,1.0355963,86.242898,-16.443567)" />
    <path
       style="fill:#d6dde7;stroke:none;stroke-width:0.26046866"
       inkscape:connector-curvature="0"
       id="path4032"
       d="m -84.691235,301.61131 c -0.537986,0 -0.806979,-0.26899 -0.806979,-0.80698 V 267.75116 H 184.30378 v 33.05317 c 0,0.53799 -0.2734,0.80698 -0.82021,0.80698 H -84.691235"
       sodipodi:nodetypes="csccssc"
       transform="matrix(0.99637637,0,0,1.0355963,86.242898,-16.443567)" />
    <path
       style="fill:#9ea4ad;stroke:none;stroke-width:0.26046866"
       inkscape:connector-curvature="0"
       id="path4034"
       d="m -84.823527,300.16933 c 0.105833,-0.097 0.233715,-0.14552 0.383646,-0.14552 0.149931,0 0.273403,0.0485 0.370417,0.14552 0.105833,0.10583 0.15875,0.23372 0.15875,0.38365 0,0.14993 -0.05292,0.2734 -0.15875,0.37041 -0.09701,0.10583 -0.220486,0.15875 -0.370417,0.15875 -0.149931,0 -0.277813,-0.0529 -0.383646,-0.15875 -0.09701,-0.097 -0.14552,-0.22048 -0.14552,-0.37041 0,-0.14993 0.04851,-0.27782 0.14552,-0.38365"
       sodipodi:nodetypes="cscscsssc"
       transform="matrix(0.99637637,0,0,1.0355963,86.242898,-16.443567)" />
    <path
       style="fill:#9ea4ad;stroke:none;stroke-width:0.26046866"
       inkscape:connector-curvature="0"
       id="path4036"
       d="m 183.24545,300.02381 c 0.14993,0 0.2734,0.0485 0.37042,0.14552 0.10583,0.10583 0.15875,0.23372 0.15875,0.38365 0,0.14993 -0.0529,0.2734 -0.15875,0.37041 -0.097,0.10583 -0.22049,0.15875 -0.37042,0.15875 -0.14993,0 -0.27781,-0.0529 -0.38364,-0.15875 -0.097,-0.097 -0.14552,-0.22048 -0.14552,-0.37041 0,-0.14993 0.0485,-0.27782 0.14552,-0.38365 0.10583,-0.097 0.23371,-0.14552 0.38364,-0.14552"
       sodipodi:nodetypes="ccscscscc"
       transform="matrix(0.99637637,0,0,1.0355963,86.242898,-16.443567)" />
    <path
       style="fill:#cd5d12;stroke:none;stroke-width:0.26458332"
       inkscape:connector-curvature="0"
       id="path3990"
       d="m -147.03274,249.66793 v -5.60916 c 0,-1.24355 0.62177,-1.86532 1.86531,-1.86532 h 22.71448 c 0.62618,0 1.0892,0.16316 1.38907,0.48948 0.32632,0.29986 0.48948,0.75847 0.48948,1.37584 v 5.60916 h -0.52917 v -5.60916 c 0,-0.89077 -0.44979,-1.33615 -1.34938,-1.33615 h -22.71448 c -0.89076,0 -1.33614,0.44538 -1.33614,1.33615 v 5.60916 h -0.52917"
       sodipodi:nodetypes="cssscsccsssscc"
       transform="translate(63.075608,-156.61994)" />
    <path
       style="fill:#e86a17;stroke:none;stroke-width:0.26458332"
       inkscape:connector-curvature="0"
       id="path3992"
       d="m -145.9744,249.66793 v -5.60916 c 0,-0.53799 0.26899,-0.80698 0.80697,-0.80698 h 22.71448 c 0.54681,0 0.82021,0.26899 0.82021,0.80698 v 5.60916 h -24.34166"
       sodipodi:nodetypes="csssscc"
       transform="translate(63.075608,-156.61994)" />
    <path
       style="fill:#fa8132;stroke:none;stroke-width:0.26458332"
       inkscape:connector-curvature="0"
       id="path3994"
       d="m -145.9744,249.66793 h -0.52917 v -5.60916 c 0,-0.89077 0.44538,-1.33615 1.33614,-1.33615 h 22.71448 c 0.89959,0 1.34938,0.44538 1.34938,1.33615 v 5.60916 h -0.52917 v -5.60916 c 0,-0.53799 -0.2734,-0.80698 -0.82021,-0.80698 h -22.71448 c -0.53798,0 -0.80697,0.26899 -0.80697,0.80698 v 5.60916"
       sodipodi:nodetypes="ccssssccssssc"
       transform="translate(63.075608,-156.61994)" />
    <path
       style="fill:#9ea4ad;stroke:none;stroke-width:0.26458332"
       inkscape:connector-curvature="0"
       id="path3996"
       d="m -120.5744,249.66793 v 17.11854 c 0,0.61736 -0.16316,1.07597 -0.48948,1.37584 -0.29987,0.32632 -0.76289,0.48948 -1.38907,0.48948 h -22.71448 c -1.24354,0 -1.86531,-0.62177 -1.86531,-1.86532 v -17.11854 h 0.52917 v 17.11854 c 0,0.89077 0.44538,1.33615 1.33614,1.33615 h 22.71448 c 0.89959,0 1.34938,-0.44538 1.34938,-1.33615 v -17.11854 h 0.52917"
       sodipodi:nodetypes="cscsssccsssscc"
       transform="translate(63.075608,-156.61994)" />
    <path
       style="fill:#ecf2fa;stroke:none;stroke-width:0.26458332"
       inkscape:connector-curvature="0"
       id="path3998"
       d="m -145.9744,249.66793 h 24.34166 0.52917 v 17.11854 c 0,0.89077 -0.44979,1.33615 -1.34938,1.33615 h -22.71448 c -0.89076,0 -1.33614,-0.44538 -1.33614,-1.33615 v -17.11854 h 0.52917 m 24.34166,17.11854 V 250.1971 h -24.34166 v 16.58937 c 0,0.53799 0.26899,0.80698 0.80697,0.80698 h 22.71448 c 0.54681,0 0.82021,-0.26899 0.82021,-0.80698"
       sodipodi:nodetypes="cccsssscccccsssc"
       transform="translate(63.075608,-156.61994)" />
    <path
       style="fill:#d6dde7;stroke:none;stroke-width:0.26458332"
       inkscape:connector-curvature="0"
       id="path4000"
       d="m -121.63274,266.78647 c 0,0.53799 -0.2734,0.80698 -0.82021,0.80698 h -22.71448 c -0.53798,0 -0.80697,-0.26899 -0.80697,-0.80698 V 250.1971 h 24.34166 v 16.58937"
       sodipodi:nodetypes="csssccc"
       transform="translate(63.075608,-156.61994)" />
    <path
       style="fill:#9ea4ad;stroke:none;stroke-width:0.26458332"
       inkscape:connector-curvature="0"
       id="path4002"
       d="m -144.54565,266.15147 c 0.10583,0.10583 0.15875,0.23372 0.15875,0.38365 0,0.14993 -0.0529,0.2734 -0.15875,0.37042 -0.097,0.10583 -0.22049,0.15875 -0.37042,0.15875 -0.14993,0 -0.27782,-0.0529 -0.38365,-0.15875 -0.097,-0.097 -0.14552,-0.22049 -0.14552,-0.37042 0,-0.14993 0.0485,-0.27782 0.14552,-0.38365 0.10583,-0.097 0.23372,-0.14552 0.38365,-0.14552 0.14993,0 0.2734,0.0485 0.37042,0.14552"
       sodipodi:nodetypes="cscscscsc"
       transform="translate(63.075608,-156.61994)" />
    <path
       style="fill:#9ea4ad;stroke:none;stroke-width:0.26458332"
       inkscape:connector-curvature="0"
       id="path4004"
       d="m -123.22024,266.53512 c 0,-0.14993 0.0485,-0.27782 0.14552,-0.38365 0.10583,-0.097 0.23372,-0.14552 0.38365,-0.14552 0.14993,0 0.2734,0.0485 0.37042,0.14552 0.10583,0.10583 0.15875,0.23372 0.15875,0.38365 0,0.14993 -0.0529,0.2734 -0.15875,0.37042 -0.097,0.10583 -0.22049,0.15875 -0.37042,0.15875 -0.14993,0 -0.27782,-0.0529 -0.38365,-0.15875 -0.097,-0.097 -0.14552,-0.22049 -0.14552,-0.37042"
       sodipodi:nodetypes="ccscscscc"
       transform="translate(63.075608,-156.61994)" />
    <path
       style="fill:#cda400;stroke:none;stroke-width:0.26458332"
       inkscape:connector-curvature="0"
       id="path4038"
       d="m 4.1577383,326.01912 v -5.60916 c 0,-1.24355 0.6217708,-1.86532 1.8653125,-1.86532 H 28.73753 c 0.62618,0 1.089201,0.16316 1.389062,0.48948 0.326319,0.29986 0.489479,0.75847 0.489479,1.37584 v 5.60916 h -0.529166 v -5.60916 c 0,-0.89077 -0.449792,-1.33615 -1.349375,-1.33615 H 6.0230508 c -0.8907639,0 -1.3361459,0.44538 -1.3361459,1.33615 v 5.60916 H 4.1577383"
       transform="translate(-79.646322,-188.69229)"
       sodipodi:nodetypes="cssscsccsssscc" />
    <path
       style="fill:#ffcc00;stroke:none;stroke-width:0.26458332"
       inkscape:connector-curvature="0"
       id="path4040"
       d="m 5.2160716,326.01912 v -5.60916 c 0,-0.53799 0.2689931,-0.80698 0.8069792,-0.80698 H 28.73753 c 0.546805,0 0.820208,0.26899 0.820208,0.80698 v 5.60916 H 5.2160716"
       transform="translate(-79.646322,-188.69229)"
       sodipodi:nodetypes="csssscc" />
    <path
       style="fill:#ffd948;stroke:none;stroke-width:0.26458332"
       inkscape:connector-curvature="0"
       id="path4042"
       d="M 5.2160716,326.01912 H 4.6869049 v -5.60916 c 0,-0.89077 0.445382,-1.33615 1.3361459,-1.33615 H 28.73753 c 0.899583,0 1.349375,0.44538 1.349375,1.33615 v 5.60916 h -0.529167 v -5.60916 c 0,-0.53799 -0.273403,-0.80698 -0.820208,-0.80698 H 6.0230508 c -0.5379861,0 -0.8069792,0.26899 -0.8069792,0.80698 v 5.60916"
       transform="translate(-79.646322,-188.69229)"
       sodipodi:nodetypes="ccssssccssssc" />
    <path
       style="fill:#9ea4ad;stroke:none;stroke-width:0.26458332"
       inkscape:connector-curvature="0"
       id="path4044"
       d="m 30.616071,326.01912 v 17.11854 c 0,0.61737 -0.16316,1.07598 -0.489479,1.37584 -0.299861,0.32632 -0.762882,0.48948 -1.389062,0.48948 H 6.0230508 c -1.2435417,0 -1.8653125,-0.62177 -1.8653125,-1.86532 v -17.11854 h 0.5291666 v 17.11854 c 0,0.89077 0.445382,1.33615 1.3361459,1.33615 H 28.73753 c 0.899583,0 1.349375,-0.44538 1.349375,-1.33615 v -17.11854 h 0.529166"
       transform="translate(-79.646322,-188.69229)"
       sodipodi:nodetypes="cscsssccsssscc" />
    <path
       style="fill:#ecf2fa;stroke:none;stroke-width:0.26458332"
       inkscape:connector-curvature="0"
       id="path4046"
       d="m 5.2160716,326.01912 h 24.3416664 0.529167 v 17.11854 c 0,0.89077 -0.449792,1.33615 -1.349375,1.33615 H 6.0230508 c -0.8907639,0 -1.3361459,-0.44538 -1.3361459,-1.33615 V 326.01912 H 5.2160716 M 29.557738,343.13766 V 326.54829 H 5.2160716 v 16.58937 c 0,0.53799 0.2689931,0.80698 0.8069792,0.80698 H 28.73753 c 0.546805,0 0.820208,-0.26899 0.820208,-0.80698"
       transform="translate(-79.646322,-188.69229)"
       sodipodi:nodetypes="cccsssscccccsssc" />
    <path
       style="fill:#d6dde7;stroke:none;stroke-width:0.26458332"
       inkscape:connector-curvature="0"
       id="path4048"
       d="m 29.557738,343.13766 c 0,0.53799 -0.273403,0.80698 -0.820208,0.80698 H 6.0230508 c -0.5379861,0 -0.8069792,-0.26899 -0.8069792,-0.80698 V 326.54829 H 29.557738 v 16.58937"
       transform="translate(-79.646322,-188.69229)"
       sodipodi:nodetypes="csssccc" />
    <path
       style="fill:#9ea4ad;stroke:none;stroke-width:0.26458332"
       inkscape:connector-curvature="0"
       id="path4050"
       d="m 6.8035716,342.88631 c 0,0.14993 -0.052917,0.27341 -0.15875,0.37042 -0.097014,0.10583 -0.2204861,0.15875 -0.3704166,0.15875 -0.1499306,0 -0.2778126,-0.0529 -0.3836459,-0.15875 -0.097014,-0.097 -0.1455208,-0.22049 -0.1455208,-0.37042 0,-0.14993 0.048507,-0.27782 0.1455208,-0.38365 0.1058333,-0.097 0.2337153,-0.14552 0.3836459,-0.14552 0.1499305,0 0.2734027,0.0485 0.3704166,0.14552 0.1058333,0.10583 0.15875,0.23372 0.15875,0.38365"
       transform="translate(-79.646322,-188.69229)"
       sodipodi:nodetypes="ccscscscc" />
    <path
       style="fill:#9ea4ad;stroke:none;stroke-width:0.26458332"
       inkscape:connector-curvature="0"
       id="path4052"
       d="m 28.115759,342.50266 c 0.105833,-0.097 0.233715,-0.14552 0.383646,-0.14552 0.14993,0 0.273402,0.0485 0.370416,0.14552 0.105833,0.10583 0.15875,0.23372 0.15875,0.38365 0,0.14993 -0.05292,0.27341 -0.15875,0.37042 -0.09701,0.10583 -0.220486,0.15875 -0.370416,0.15875 -0.149931,0 -0.277813,-0.0529 -0.383646,-0.15875 -0.09701,-0.097 -0.145521,-0.22049 -0.145521,-0.37042 0,-0.14993 0.04851,-0.27782 0.145521,-0.38365"
       transform="translate(-79.646322,-188.69229)"
       sodipodi:nodetypes="cscscscsc" />
    <path
       transform="matrix(0.26458333,0,0,0.26458333,-233.05856,0.07011616)"
       style="fill:#35baf3;stroke:none"
       inkscape:connector-curvature="0"
       id="path10396"
       d="m 712,335.25 v -21.2 q 0,-5.05 5.05,-5.05 h 85.85 q 5.1,0 5.1,5.05 v 21.2 h -2 v -21.2 Q 806,311 802.9,311 h -85.85 q -3.05,0 -3.05,3.05 v 21.2 h -2" />
    <path
       transform="matrix(0.26458333,0,0,0.26458333,-233.05856,0.07011616)"
       style="fill:#ecf2fa;stroke:none"
       inkscape:connector-curvature="0"
       id="path10398"
       d="m 712,335.25 h 2 92 2 v 64.7 q 0,5.05 -5.1,5.05 H 717.05 Q 712,405 712,399.95 v -64.7 m 2,2 v 62.7 q 0,3.05 3.05,3.05 h 85.85 q 3.1,0 3.1,-3.05 v -62.7 h -92" />
    <path
       transform="matrix(0.26458333,0,0,0.26458333,-233.05856,0.07011616)"
       style="fill:#1ea7e1;stroke:none"
       inkscape:connector-curvature="0"
       id="path10400"
       d="m 714,335.25 v -21.2 q 0,-3.05 3.05,-3.05 h 85.85 q 3.1,0 3.1,3.05 v 21.2 h -92" />
    <path
       transform="matrix(0.26458333,0,0,0.26458333,-233.05856,0.07011616)"
       style="fill:#1989b8;stroke:none"
       inkscape:connector-curvature="0"
       id="path10402"
       d="m 808,335.25 v -21.2 Q 808,309 802.9,309 h -85.85 q -5.05,0 -5.05,5.05 v 21.2 h -2 v -21.2 q 0,-7.05 7.05,-7.05 h 85.85 q 3.55,0 5.25,1.85 1.85,1.7 1.85,5.2 v 21.2 h -2" />
    <path
       transform="matrix(0.26458333,0,0,0.26458333,-233.05856,0.07011616)"
       style="fill:#9ea4ad;stroke:none"
       inkscape:connector-curvature="0"
       id="path10404"
       d="m 808,335.25 h 2 v 64.7 q 0,3.5 -1.85,5.2 -1.7,1.85 -5.25,1.85 H 717.05 Q 710,407 710,399.95 v -64.7 h 2 v 64.7 q 0,5.05 5.05,5.05 h 85.85 q 5.1,0 5.1,-5.05 v -64.7" />
    <path
       transform="matrix(0.26458333,0,0,0.26458333,-233.05856,0.07011616)"
       style="fill:#d6dde7;stroke:none"
       inkscape:connector-curvature="0"
       id="path10406"
       d="m 714,337.25 h 92 v 62.7 q 0,3.05 -3.1,3.05 H 717.05 Q 714,403 714,399.95 v -62.7" />
    <path
       transform="matrix(0.26458333,0,0,0.26458333,-233.05856,0.07011616)"
       style="fill:#9ea4ad;stroke:none"
       inkscape:connector-curvature="0"
       id="path10408"
       d="m 716,399 q 0,-0.85 0.55,-1.45 0.6,-0.55 1.45,-0.55 0.85,0 1.4,0.55 0.6,0.6 0.6,1.45 0,0.85 -0.6,1.4 -0.55,0.6 -1.4,0.6 -0.85,0 -1.45,-0.6 Q 716,399.85 716,399" />
    <path
       transform="matrix(0.26458333,0,0,0.26458333,-233.05856,0.07011616)"
       style="fill:#9ea4ad;stroke:none"
       inkscape:connector-curvature="0"
       id="path10410"
       d="m 800.55,397.55 q 0.6,-0.55 1.45,-0.55 0.85,0 1.4,0.55 0.6,0.6 0.6,1.45 0,0.85 -0.6,1.4 -0.55,0.6 -1.4,0.6 -0.85,0 -1.45,-0.6 -0.55,-0.55 -0.55,-1.4 0,-0.85 0.55,-1.45" />
    <flowRoot
       xml:space="preserve"
       id="flowRoot11732"
       style="font-style:normal;font-variant:normal;font-weight:normal;font-stretch:normal;font-size:40px;line-height:1.25;font-family:'Bauhaus 93';-inkscape-font-specification:'Bauhaus 93, ';letter-spacing:0px;word-spacing:0px;fill:#000000;fill-opacity:1;stroke:none"><flowRegion
         id="flowRegion11734"
         style="font-style:normal;font-variant:normal;font-weight:normal;font-stretch:normal;font-family:'Bauhaus 93';-inkscape-font-specification:'Bauhaus 93, '"><rect
           id="rect11736"
           width="394.28571"
           height="182.85715"
           x="-204.28572"
           y="1685.3768"
           style="font-style:normal;font-variant:normal;font-weight:normal;font-stretch:normal;font-family:'Bauhaus 93';-inkscape-font-specification:'Bauhaus 93, '" /></flowRegion><flowPara
         id="flowPara11738" /></flowRoot>    <text
       xml:space="preserve"
       style="font-style:normal;font-weight:normal;font-size:40px;line-height:1.25;font-family:sans-serif;letter-spacing:0px;word-spacing:0px;fill:#000000;fill-opacity:1;stroke:none"
       x="-151.42857"
       y="1741.0911"
       id="text11742"
       transform="scale(0.26458333)"><tspan
         sodipodi:role="line"
         id="tspan11740"
         x="-151.42857"
         y="1777.5842"
         style="font-style:normal;font-variant:normal;font-weight:normal;font-stretch:normal;font-family:'Bauhaus 93';-inkscape-font-specification:'Bauhaus 93, '" /></text>
    <text
       xml:space="preserve"
       style="font-style:normal;font-weight:normal;font-size:40px;line-height:1.25;font-family:sans-serif;letter-spacing:0px;word-spacing:0px;fill:#000000;fill-opacity:1;stroke:none"
       x="-102"
       y="1604.5197"
       id="text11754"
       transform="scale(0.26458333)"><tspan
         sodipodi:role="line"
         id="tspan11752"
         x="-102"
         y="1641.0128" /></text>
    <g
       id="g1059"
       inkscape:export-filename="C:\Users\hgrigolli\Desktop\python_mack\Algoritimos e Programa-o\Jogos\PyGame\EmBuscaDoPinico\imagens\UI\rect_movement.png"
       inkscape:export-xdpi="96"
       inkscape:export-ydpi="96">
      <path
         sodipodi:nodetypes="cssssccsssscc"
         transform="matrix(0.26409041,0,0,0.26457969,-394.79843,120.8378)"
         d="m 712.50542,-103.3287 0,-81.20083 c 0,-3.36667 1.68335,-5.06172 5.05,-5.05 l 410.13598,1.42857 c 3.4,0.0118 5.1,1.68333 5.1,5.05 l 0,81.20083 h -2 l 0,-81.20083 c 0,-2.03333 -1.0334,-3.0428 -3.1,-3.05 l -410.13598,-1.42857 c -2.03332,-0.007 -3.05,1.01667 -3.05,3.05 l 0,81.20083 h -2"
         id="path4006"
         inkscape:connector-curvature="0"
         style="fill:#35baf3;fill-opacity:1;stroke:none;stroke-width:1.00093973" />
      <path
         sodipodi:nodetypes="ccccssssccsssscc"
         transform="matrix(0.26409041,0,0,0.26457969,-394.79843,120.8378)"
         d="m 712.50542,-103.3287 h 2 l 416.28598,1.42857 h 2 l -0.5054,503.2787 c -0,3.36667 -1.7,5.06184 -5.1,5.05 L 717.05,405 c -3.36665,-0.0117 -5.05338,-1.68333 -5.05,-5.05 l 0.50542,-503.2787 m 2,2 L 714,399.95 c -0.002,2.03333 1.01668,3.04292 3.05,3.05 l 410.136,1.42857 c 2.0666,0.007 3.1,-1.01667 3.1,-3.05 l 0.5054,-501.278703 -416.28598,-1.428567"
         id="path4008"
         inkscape:connector-curvature="0"
         style="fill:#ecf2fa;stroke:none;stroke-width:1.00093973" />
      <path
         sodipodi:nodetypes="csssscc"
         transform="matrix(0.26409041,0,0,0.26457969,-394.79843,120.8378)"
         d="m 714.50542,-103.3287 0,-81.20083 c 0,-2.03333 1.01668,-3.05708 3.05,-3.05 l 410.13598,1.42857 c 2.0666,0.007 3.1,1.01668 3.1,3.05 l 0,81.20083 -416.28598,-1.42857"
         id="path4010"
         inkscape:connector-curvature="0"
         style="fill:#1ea7e1;fill-opacity:1;stroke:none;stroke-width:1.00093973" />
      <path
         sodipodi:nodetypes="cssssccssscscc"
         transform="matrix(0.26409041,0,0,0.26457969,-394.79843,120.8378)"
         d="m 1132.7914,-101.90013 0,-81.20083 c 0,-3.36667 -1.7,-5.03816 -5.1,-5.05 l -410.13598,-1.42857 c -3.36665,-0.0117 -5.05,1.68333 -5.05,5.05 l 0,81.20083 h -2 l 0,-81.20083 c 0,-4.7 2.35003,-7.06637 7.05,-7.05 l 410.13598,1.42857 c 2.3666,0.008 4.1167,0.61667 5.25,1.85 1.2333,1.13333 1.85,2.86667 1.85,5.2 l 0,81.20083 h -2"
         id="path4012"
         inkscape:connector-curvature="0"
         style="fill:#1989b8;fill-opacity:1;stroke:none;stroke-width:1.00093973" />
      <path
         sodipodi:nodetypes="ccscsssccssssc"
         transform="matrix(0.26409041,0,0,0.26457969,-394.79843,120.8378)"
         d="m 1132.7914,-101.89503 h 2 l -0.5054,503.2736 c -0,2.33333 -0.6167,4.06667 -1.85,5.2 -1.1333,1.23333 -2.8834,1.85824 -5.25,1.85 L 717.05,407 c -4.69997,-0.0164 -7.05,-2.35 -7.05,-7.05 l 0.50542,-503.2736 h 2 L 712,399.95 c -0.003,3.36667 1.68335,5.03827 5.05,5.05 l 410.136,1.42857 c 3.4,0.0118 5.0966,-1.68333 5.1,-5.05 l 0.5054,-503.2736"
         id="path4014"
         inkscape:connector-curvature="0"
         style="fill:#9ea4ad;stroke:none;stroke-width:1.00093973" />
      <path
         sodipodi:nodetypes="ccssssc"
         transform="matrix(0.26409041,0,0,0.26457969,-394.79843,120.8378)"
         d="m 714.50542,-101.3287 416.28598,1.428567 -0.5054,501.278703 c -0,2.03333 -1.0334,3.0572 -3.1,3.05 L 717.05,403 c -2.03332,-0.007 -3.05205,-1.01667 -3.05,-3.05 l 0.50542,-501.2787"
         id="path4016"
         inkscape:connector-curvature="0"
         style="fill:#d6dde7;stroke:none;stroke-width:1.00093973" />
      <path
         sodipodi:nodetypes="ccssscssc"
         transform="matrix(0.26409041,0,0,0.26457969,-394.79843,120.8378)"
         d="m 716,399 c 0,-0.56667 0.18333,-1.05 0.55,-1.45 0.4,-0.36667 0.88333,-0.55 1.45,-0.55 0.56667,0 1.03333,0.18333 1.4,0.55 0.4,0.4 0.6,0.88333 0.6,1.45 0,0.56667 -0.2,1.03333 -0.6,1.4 -0.36667,0.4 -0.83333,0.6 -1.4,0.6 -0.56667,0 -1.05,-0.2 -1.45,-0.6 -0.36667,-0.36667 -0.55,-0.83333 -0.55,-1.4"
         id="path4018"
         inkscape:connector-curvature="0"
         style="fill:#9ea4ad;stroke:none;stroke-width:1.00093973" />
      <path
         sodipodi:nodetypes="cssscsssc"
         transform="matrix(0.26409041,0,0,0.26457969,-394.79843,120.8378)"
         d="m 1124.836,398.97857 c 0.4,-0.36667 0.8833,-0.55 1.45,-0.55 0.5667,0 1.0333,0.18333 1.4,0.55 0.4,0.4 0.6,0.88333 0.6,1.45 0,0.56667 -0.2,1.03333 -0.6,1.4 -0.3667,0.4 -0.8333,0.6 -1.4,0.6 -0.5667,0 -1.05,-0.2 -1.45,-0.6 -0.3667,-0.36667 -0.55,-0.83333 -0.55,-1.4 0,-0.56667 0.1833,-1.05 0.55,-1.45"
         id="path4020"
         inkscape:connector-curvature="0"
         style="fill:#9ea4ad;stroke:none;stroke-width:1.00093973" />
      <path
         sodipodi:nodetypes="cc"
         inkscape:original-d="m 231.73567,476.66652 c 0.001,168.90056 0.001,337.80211 0,506.70465"
         inkscape:path-effect="#path-effect9723"
         transform="matrix(0.26464255,0,0,0.26330507,-239.91485,-31.373736)"
         inkscape:connector-curvature="0"
         id="path9721"
         d="m 231.73567,476.66652 c 0,168.90056 0,337.80211 0,506.70465"
         style="fill:none;stroke:#9ea4ad;stroke-width:1.00231218px;stroke-linecap:butt;stroke-linejoin:miter;stroke-opacity:1" />
      <path
         sodipodi:nodetypes="cc"
         style="fill:none;stroke:#9ea4ad;stroke-width:1.21593404px;stroke-linecap:butt;stroke-linejoin:miter;stroke-opacity:1"
         d="m 231.73567,370.19691 c 0,204.39044 0,408.78187 0,613.17426"
         id="path9725"
         inkscape:connector-curvature="0"
         transform="matrix(0.21761142,0,0,0.21758216,-201.4873,13.689076)"
         inkscape:path-effect="#path-effect9727"
         inkscape:original-d="m 231.73567,370.19691 c 0.001,204.39044 0.001,408.78187 0,613.17426" />
      <path
         sodipodi:nodetypes="cc"
         inkscape:original-d="m 231.73567,370.20396 c 0.001,204.3881 0.001,408.77717 0,613.16721"
         inkscape:path-effect="#path-effect9731"
         transform="matrix(0.26478329,0,0,0.21761372,-184.92336,13.753084)"
         inkscape:connector-curvature="0"
         id="path9729"
         d="m 231.73567,370.20396 c 0,204.3881 0,408.77717 0,613.16721"
         style="fill:none;stroke:#9ea4ad;stroke-width:1.10223472px;stroke-linecap:butt;stroke-linejoin:miter;stroke-opacity:1" />
      <text
         transform="matrix(0.26458333,0,0,0.26458333,4.2562672,252.1758)"
         id="text1026"
         y="-577.6441"
         x="-793.37378"
         style="font-style:normal;font-variant:normal;font-weight:normal;font-stretch:normal;font-size:16px;line-height:1.25;font-family:'Berlin Sans FB Demi';-inkscape-font-specification:'Berlin Sans FB Demi';letter-spacing:0px;word-spacing:0px;fill:#1ea7e1;fill-opacity:1;stroke:none;"
         xml:space="preserve"><tspan
           style="font-size:29.33333397px;fill:#1ea7e1;fill-opacity:1;"
           y="-577.6441"
           x="-793.37378"
           id="tspan1024"
           sodipodi:role="line">1</tspan></text>
      <text
         xml:space="preserve"
         style="font-style:normal;font-variant:normal;font-weight:normal;font-stretch:normal;font-size:16px;line-height:1.25;font-family:'Berlin Sans FB Demi';-inkscape-font-specification:'Berlin Sans FB Demi';letter-spacing:0px;word-spacing:0px;fill:#1ea7e1;fill-opacity:1;stroke:none;"
         x="-793.37378"
         y="-577.6441"
         id="text1030"
         transform="matrix(0.26458333,0,0,0.26458333,32.169808,252.1758)"><tspan
           sodipodi:role="line"
           id="tspan1028"
           x="-793.37378"
           y="-577.6441"
           style="font-size:29.33333397px;fill:#1ea7e1;fill-opacity:1;">2</tspan></text>
      <text
         transform="matrix(0.26458333,0,0,0.26458333,59.818766,252.1758)"
         id="text1034"
         y="-577.6441"
         x="-793.37378"
         style="font-style:normal;font-variant:normal;font-weight:normal;font-stretch:normal;font-size:16px;line-height:1.25;font-family:'Berlin Sans FB Demi';-inkscape-font-specification:'Berlin Sans FB Demi';letter-spacing:0px;word-spacing:0px;fill:#1ea7e1;fill-opacity:1;stroke:none;"
         xml:space="preserve"><tspan
           style="font-size:29.33333397px;fill:#1ea7e1;fill-opacity:1;"
           y="-577.6441"
           x="-793.37378"
           id="tspan1032"
           sodipodi:role="line">3</tspan></text>
      <text
         xml:space="preserve"
         style="font-style:normal;font-variant:normal;font-weight:normal;font-stretch:normal;font-size:16px;line-height:1.25;font-family:'Berlin Sans FB Demi';-inkscape-font-specification:'Berlin Sans FB Demi';letter-spacing:0px;word-spacing:0px;fill:#1ea7e1;fill-opacity:1;stroke:none;"
         x="-793.37378"
         y="-577.6441"
         id="text1038"
         transform="matrix(0.26458333,0,0,0.26458333,87.467724,252.1758)"><tspan
           sodipodi:role="line"
           id="tspan1036"
           x="-793.37378"
           y="-577.6441"
           style="font-size:29.33333397px;fill:#1ea7e1;fill-opacity:1;">4</tspan></text>
    </g>
  </g>
</svg>
